<svg width="196" height="196" viewBox="0 0 196 196" fill="none" xmlns="http://www.w3.org/2000/svg">
<mask id="mask0_1075_1082" style="mask-type:alpha" maskUnits="userSpaceOnUse" x="0" y="0" width="196" height="196">
<rect width="196" height="196" fill="#D9D9D9"/>
</mask>
<g mask="url(#mask0_1075_1082)">
<rect width="196" height="196" fill="#93BEFF"/>
<path d="M205.7 211.099H-4.3999C-3.5999 209.199 -2.19992 205.899 -0.199921 201.899L0.5 200C8.1 187.6 17.3 174 30.5 167C38.8 162.6 54.8 157.4 66.5 154C67.5 158.4 73.2001 164.499 82.6001 167.499C82.6001 167.499 82.6001 167.499 82.7001 167.499C86.5001 168.999 91.0001 169.499 94.7001 169.599C94.8001 169.599 94.9001 169.599 95.0001 169.599C114 170.299 132.3 161.7 137 149C148 153.8 172.5 164.3 184 173.5C195.9 183 201.2 198.199 203.3 203.999C203.3 204.099 203.4 204.199 203.4 204.299C203.6 204.999 203.9 205.799 204.1 206.499V206.599C204.7 208.099 205.2 209.599 205.7 211.099Z" fill="#252933"/>
<path d="M188.4 175C195.5 183 199.8 193.6 203.3 203.9C201.2 198.1 195.1 183.8 183.1 174.3C171.6 165.1 147.3 154.3 136.4 149.6C136.9 148.3 137.2 147 137.4 145.6C154.1 153.1 178.8 164.3 188.4 175Z" fill="#5B6477"/>
<path d="M148.1 57.2H145C145 57.2 141.9 73.7 140.1 83.4L138.5 84.5C140.3 78.2 142.8 55 142.8 55L145 54.2C145 54.2 143.4 50.7 141 45C137.6 37 130 31 130 31L134.5 29.4C125.9 20.8 108.8 17 108.8 17L110.7 15.1C100.2 11.3 83.1 15.1 83.1 15.1L83.5 14C74.9 16.9 70 27 70 27C70 27 60.3 25.6 53.5 28.5C58.4 23.6 68.2 23 68.2 23C71.9 18.1 79.2 10.8 89 9C89 9 87.8 10.2 87.2 12.1C87.2 12.1 96.8 9.7 108.6 12.1C114.7 13.3 117.1 13.8 117.1 13.8L114.2 15.7C114.2 15.7 131.9 20.6 139.8 31.6C139.8 31.6 136.7 31.6 134.9 31.6C134.9 31.6 140.5 34.7 144.1 44.4C146.2 51.1 148.1 57.2 148.1 57.2Z" fill="url(#paint0_linear_1075_1082)"/>
<path d="M56.4001 87.2992C56.6001 92.2992 57.1001 95.7992 57.1001 98.0992C57.1001 98.0992 55.7001 90.8992 52.5001 88.6992C52.2001 88.4992 51.8001 88.2992 51.4001 88.1992V88.0992C51.0001 87.1992 49.4001 83.6992 47.9001 78.5992C47.0001 75.5992 46.1001 70.6992 45.5001 68.7992C44.9001 66.9992 43.1001 65.6992 43.1001 65.6992C44.3001 63.2992 44.9001 52.2992 44.9001 52.2992L43.1001 51.6992C43.1001 51.6992 46.2001 43.1992 51.6001 36.3992C54.9001 32.2992 56.8001 29.8992 56.8001 29.8992L53.4001 28.4992C60.2001 25.5992 69.7001 25.5992 69.7001 25.5992C69.7001 25.5992 75.4001 16.0992 84.0001 13.1992L83.5 15C83.5 15 101.1 11.2 111.5 15L109 17C109 17 126.5 20.9 135 29.5L131 31C131 31 138.5 37.4 142 45.5C144.4 51.2 145.5 54.5 145.5 54.5L143 55.5C143 55.5 141.2 76.9992 139.3 83.2992L134.9 82.8992C134.9 76.6992 134.6 69.2992 133.9 65.5992C132.7 59.4992 128.4 53.3992 128.4 53.3992L127.2 60.0992C126 55.7992 119.9 49.6992 119.9 49.6992C120.5 51.4992 120.5 55.1992 120.5 55.1992C120.5 55.1992 115.6 47.8992 108.3 45.9992C102.1 44.4992 94.9001 46.5992 94.9001 46.5992C90.6001 45.9992 82.9001 45.7992 77.2001 48.9992C72.9001 51.3992 70.6001 53.2992 68.6001 55.6992C66.2001 58.7992 62.5001 64.8992 61.9001 67.8992C61.9001 67.8992 61.3001 62.3992 63.1001 58.6992C63.1001 58.6992 57.0001 65.3992 56.4001 76.3992C56.3001 80.7992 56.3001 84.2992 56.4001 87.2992Z" fill="#14181E"/>
<path d="M133.9 107.901C133 113.001 131.5 119.001 129.1 123.201C128.7 123.901 128.2 124.701 127.7 125.501C122.4 133.301 111.6 142.801 100.5 143.401C100.4 143.401 100.3 143.401 100.3 143.401V142.001C116.2 138.701 119.4 122.301 120.1 100.101C124.2 98.7008 128.4 95.5008 129.5 91.1008C130.2 88.2008 130.1 85.4008 129.2 83.0008L129.7 82.8008L135.2 83.2008C135.2 87.1008 135 90.5008 134.8 92.2008C134.8 92.2008 136.5 85.3008 140.4 83.8008C141.1 83.5008 141.9 83.4008 142.8 83.6008C147.6 84.7008 145.5 94.4008 142.8 100.001C139.5 106.101 135.5 108.101 133.9 107.901Z" fill="#F29978"/>
<path d="M139.4 83.3996L140.1 83.4996L140.2 83.6996C136.4 85.1996 134.6 92.0996 134.6 92.0996C134.8 90.3996 135 86.9996 135 83.0996L139.4 83.3996Z" fill="#14181E"/>
<path d="M137.4 145.7C137.2 147.1 137 149.7 136.5 151C134.5 150.2 132.5 149.4 131.5 149C132.3 147.5 133.2 145 133.4 144C134.7 144.5 136 145 137.4 145.7Z" fill="#5B6477"/>
<path d="M134 65.7999C134.7 69.4999 135 76.8999 135 83.0999L129.5 82.6999L129 82.8999C127.6 79.2999 123.3 76.3999 118 75.5999C117.6 74.1999 117 71.8999 116.5 70.4999C117.9 70.4999 120.6 70.3 122 70.5C123.8 70.7 125.1 71.3 126.5 72C127.2 72.4 127.7 72.7 128 72C128.3 71.3 128.7 71.3 128 71C126 70 124 69.7 122 69.5C120.1 69.3 117.4 68.8 115.5 69C110.3 57.5 101.7 49.1999 94.1001 46.8999C94.1001 46.8999 102.3 44.6999 108.5 46.2999C115.8 48.0999 120.7 55.4999 120.7 55.4999C120.7 55.4999 120.7 51.7999 120.1 49.9999C120.1 49.9999 126.2 56.0999 127.4 60.3999L128.6 53.6999C128.5 53.5999 132.8 59.6999 134 65.7999Z" fill="#F29978"/>
<path d="M94.7002 169.6C91.0002 169.5 86.5002 169.1 82.7002 167.5C82.7002 167.5 82.7002 167.5 82.6002 167.5C73.2002 164.4 67.5 158.4 66.5 154C68.1 153.5 69.9002 152.9 71.4002 152.5V152.9C71.5002 153.5 71.9002 154.2 72.4002 155C74.2002 157.4 82.9002 166.5 102.3 164.8C117.9 163.4 126.7 155.9 130.8 149.8C131.2 149.1 131.6 148.5 131.9 147.9C132.9 148.3 134.4 149 136.4 149.8C131.7 162.5 114 170.4 95.0002 169.7C94.9002 169.6 94.8002 169.6 94.7002 169.6Z" fill="#3D4451"/>
<path d="M129.5 139.1C130.3 142.8 133.4 143.9 133.4 143.9C133.2 144.9 132.7 146.3 131.9 147.7C131.6 148.3 131.2 148.9 130.8 149.6H130.7C121.3 151.5 106.3 149.6 95.8003 143.2C97.3003 143.4 98.7003 143.4 100.2 143.3C100.3 143.3 100.4 143.3 100.4 143.3C111.5 142.7 122.3 133.2 127.6 125.4L127.8 125.6C127.8 133.6 128.5 134.7 129.5 139.1Z" fill="#F29978"/>
<path d="M130.7 149.6C126.7 155.7 117.9 163.3 102.3 164.7C82.8001 166.4 74.2002 157.4 72.4002 154.9C71.8002 154.2 71.5002 153.5 71.4002 152.8C71.1002 151.3 71.7001 149.9 73.0001 148.3C73.8001 144.9 73.7001 138.3 73.0001 133.8L73.2002 133.5C79.4002 138.2 87.6002 142.2 95.9002 143.1C106.3 149.7 121.3 151.5 130.7 149.6Z" fill="#FBBFA0"/>
<path d="M129 82.8004C129.9 85.2004 130 88.1004 129.3 90.9004C128.2 95.3004 125.1 98.6004 120.9 99.9004C121 96.8004 121.1 93.7004 121.1 90.4004C121.1 85.1004 120.3 80.0004 119 75.4004C124.3 76.4004 127.6 79.2004 129 82.8004Z" fill="#F29978"/>
<path d="M128.2 70.3993C128.9 70.7993 129.2 71.5993 128.8 72.2993C128.4 72.9993 127.6 73.2993 126.9 72.8993H126.8C125.4 72.1993 123.6 71.7993 121.8 71.4993C120.4 71.2993 119 71.1993 117.5 71.2993C117.2 70.3993 116.8 69.4993 116.4 68.5993C118.3 68.3993 120.2 68.4993 122.1 68.6993C124.2 68.9993 126.2 69.3993 128.2 70.3993Z" fill="black"/>
<path d="M121.2 90.5005C121.2 93.7005 121.2 96.9005 121 100C118.9 100.7 116.6 100.9 114.1 100.6C105.6 99.4005 101.9 92.1005 102.5 85.3005C102.6 84.4005 102.8 83.5005 103.1 82.7005C105 77.6005 110.8 74.8005 117.5 75.4005C118 75.4005 118.6 75.5005 119.1 75.6005C120.4 80.1005 121.2 85.2005 121.2 90.5005ZM118.274 85.3005C118.274 83.5005 117.4 82 115.5 82C113.6 82 113 82.6 113 84.5C113 86.4 113.6 87.5 115.5 87.5C117.4 87.5 118.274 87.2005 118.274 85.3005Z" fill="#FBBFA0"/>
<path d="M119 75.5009C118.5 75.4009 118 75.4009 117.4 75.3009C110.7 74.8009 104.9 77.6009 103 82.6009L102.8 82.5009C100.3 80.7009 95.2003 80.1009 91.3003 82.5009L90.8003 82.7009C88.5003 78.3009 83.1003 76.0009 76.9003 76.5009C69.9003 77.1009 66.0003 80.8009 64.9003 85.5009H64.7003L56.4003 87.3009C56.3003 84.3009 56.2003 80.8009 56.5003 76.8009C57.1003 65.8009 63.2003 59.1009 63.2003 59.1009C61.4003 62.8009 62.0003 68.3009 62.0003 68.3009C62.6003 65.2009 66.3003 59.1009 68.7003 56.1009C70.6003 53.7009 73.0003 51.8009 77.3003 49.4009C83.0003 46.1009 90.7003 46.3009 95.0003 47.0009C102.7 49.3009 111.3 57.3009 116.5 68.8009C116.4 68.8009 116.3 68.8009 116.3 68.8009C114.3 69.0009 112.4 69.4009 110.4 69.9009C108.5 70.5009 106.6 71.3009 105 72.4009C104.7 72.6009 105.9 72.6 106 73C105.6 73.2 106.2 73.5 106 73C107.7 72.4 109.2 72 111 71.5C112.8 71.1 114.1 70.5991 116 71C116.4 71 117.1 71 117.5 71C118 72.3 118.6 74.1009 119 75.5009Z" fill="#FBBFA0"/>
<path d="M115.4 81.5996C117.2 81.5996 118.8 83.0996 118.8 84.9996C118.8 86.8996 117.3 88.3996 115.4 88.3996C113.5 88.3996 112 86.8996 112 84.9996C112.1 83.0996 113.6 81.5996 115.4 81.5996Z" fill="black"/>
<path d="M49.6002 94.3009C49.5002 92.7009 49.9002 91.5009 51.0002 90.8009L52.5002 88.7009C55.7002 90.9009 57.1002 98.1009 57.1002 98.1009C57.1002 95.8009 56.6002 92.3009 56.4002 87.3009L64.7002 85.5009H64.9002C64.4002 87.6009 64.4002 89.9009 65.0002 92.1009C66.6002 98.7009 72.9002 102.801 80.3002 101.701C88.8002 100.501 92.5002 93.2009 91.9002 86.4009C91.8002 85.0009 91.4002 83.8009 90.8002 82.7009L91.3002 82.5009C95.2002 80.1009 100.4 80.7009 102.8 82.5009L103 82.6009C102.7 83.4009 102.5 84.3009 102.4 85.2009C101.8 91.9009 105.5 99.2009 114 100.501C116.5 100.901 118.8 100.601 120.9 99.9009C120.1 122.201 116 139.501 100.1 142.801V143.201C98.6002 143.301 97.2002 143.201 95.7002 143.101C87.4002 142.301 79.3002 138.201 73.0002 133.501C71.1002 132.101 69.4002 130.601 68.0002 129.201C63.5002 124.701 60.9002 118.601 59.2002 113.201L58.8002 113.301C57.6002 113.301 54.5002 110.901 51.5002 106.601C48.8002 102.801 47.0002 98.2009 46.7002 94.5009L49.6002 94.3009Z" fill="#FBBFA0"/>
<path d="M117.6 71.2992C117.2 71.2992 116.8 71.2992 116.4 71.2992C114.6 71.3992 112.8 71.6992 111 72.0992C109.2 72.4992 107.5 73.0992 105.8 73.7992C105.4 73.9992 104.8 73.6992 104.7 73.2992C104.6 72.8992 104.7 72.4992 105 72.2992C106.6 71.0992 108.5 70.2992 110.4 69.7992C112.3 69.1992 115 68.5 117.5 68.5C117.6 68.5 116.5 68.6992 116.5 68.6992C116.9 69.4992 117.3 70.3992 117.6 71.2992Z" fill="black"/>
<path d="M91.9 86.5005C92.5 93.2005 88.7999 100.5 80.2999 101.8C72.9999 102.9 66.7 98.8005 65 92.2005C64.4 89.9005 64.4 87.6005 64.9 85.6005C66 80.9005 69.9 77.2005 76.9 76.6005C83.1 76.1005 88.5 78.5005 90.7999 82.8005C91.4 83.9005 91.8 85.2005 91.9 86.5005ZM81 87C81 85.2 81.3 84.5 79.4 84.5C77.5 84.5 76.9 84.6005 76.9 86.5005C76.9 88.4005 77.5 88.5 79.4 88.5C81.2 88.5 81 88.9 81 87Z" fill="#FBBFA0"/>
<path d="M89.8001 72.8993C90.2001 73.0993 90.4001 73.5993 90.1001 73.9993C89.9001 74.2993 89.5001 74.4993 89.2001 74.3993C87.3001 73.9993 85.3001 73.5993 83.4001 73.3993C81.5001 73.1993 79.5001 72.9993 77.5001 73.0993C75.5001 73.0993 73.6001 73.2993 71.7001 73.5993C69.8001 73.9993 68.0001 74.4993 66.6001 75.3993H66.5001C65.8001 75.7993 64.9001 75.5993 64.5001 74.9993C64.1001 74.3993 64.3001 73.4993 64.9001 73.0993C65.9001 72.3993 66.9001 71.8993 68.0001 71.4993C69.0001 71.0993 70.1001 70.8993 71.2001 70.6993C73.3001 70.2993 75.4001 70.0993 77.6001 70.1993C79.7001 70.1993 81.8001 70.3993 83.9001 70.7993C85.8001 71.2993 87.9001 71.8993 89.8001 72.8993Z" fill="black"/>
<path d="M79.4 83.5C81.2 83.5 82.8 85 82.8 86.9C82.8 88.8 81.3 90.3 79.4 90.3C77.5 90.3 76 88.8 76 86.9C76 85 77.5 83.5 79.4 83.5Z" fill="black"/>
<path d="M71.4 152.801C69.9 153.201 68.3 153.701 66.7 154.101C66.4 152.701 66.5 151.401 67.2 150.401C69.8 149.601 71.7 148.901 72.9 148.301C71.7 149.901 71 151.301 71.4 152.801Z" fill="#5B6477"/>
<path d="M67.2003 150.5C66.5003 151.5 66.4003 152.8 66.7003 154.2C55.0003 157.6 39.9003 162.4 31.6003 166.8C18.4003 173.8 7.80031 189.7 0.100311 202.1L-0.199707 201.9C4.60029 191.8 12.5003 177.4 21.1003 169.6C32.1003 159.5 55.5003 154 67.2003 150.5Z" fill="#5B6477"/>
<path d="M52.5003 88.7001L51.0003 90.8001C49.9003 91.5001 49.4003 92.7001 49.6003 94.3001L46.9003 94.5001C46.6003 91.5001 47.3003 89.1001 49.2003 88.3001C50.0003 87.9001 50.8003 87.9001 51.5003 88.1001C51.8003 88.3001 52.2003 88.5001 52.5003 88.7001Z" fill="#FBBFA0"/>
<path d="M140.1 83.4996C141.9 73.6996 145 57.2996 145 57.2996H148.1C148.1 57.2996 146.3 51.1996 143.8 44.4996C140.3 34.6996 134.6 31.6996 134.6 31.6996C136.4 31.6996 139.5 31.6996 139.5 31.6996C131.6 20.6996 113.9 15.7996 113.9 15.7996L116.8 13.8996C116.8 13.8996 114.4 13.3996 108.3 12.1996C96.4999 9.79961 86.8999 12.1996 86.8999 12.1996C87.4999 10.3996 88.6999 9.09961 88.6999 9.09961C78.8999 10.8996 71.5999 18.2996 67.8999 23.0996C67.8999 23.0996 58.0999 23.6996 53.1999 28.5996L56.5999 29.9996C56.5999 29.9996 54.6999 32.3996 51.3999 36.4996C45.8999 43.1996 42.8999 51.7996 42.8999 51.7996L44.6999 52.3996C44.6999 52.3996 44.0999 63.3996 42.8999 65.7996C42.8999 65.7996 44.6999 66.9996 45.2999 68.8996C45.8999 70.6996 46.7999 75.6996 47.6999 78.6996C49.1999 83.7996 50.7999 87.2996 51.1999 88.1996" stroke="black" stroke-width="2" stroke-miterlimit="10" stroke-linecap="round" stroke-linejoin="round"/>
<path d="M58.9998 113.4C57.7998 113.4 54.6998 111 51.6998 106.7C48.9998 102.9 47.1998 98.2995 46.8998 94.5995C46.5998 91.5995 47.2998 89.1995 49.1998 88.3995C49.9998 87.9995 50.7998 87.9995 51.4998 88.1995C51.8998 88.2995 52.1998 88.4995 52.5998 88.6995C55.7998 90.8995 57.1998 98.0995 57.1998 98.0995C57.1998 95.7995 56.6998 92.2995 56.4998 87.2995C56.3998 84.2995 56.2998 80.7995 56.5998 76.7995C57.1998 65.7995 63.2998 59.0995 63.2998 59.0995C61.4998 62.7995 62.0998 68.2995 62.0998 68.2995C62.6998 65.1995 66.3998 59.0995 68.7998 56.0995C70.6998 53.6995 73.0998 51.7995 77.3998 49.3995C83.0998 46.0995 90.7998 46.2995 95.0998 46.9995C95.0998 46.9995 102.3 44.7995 108.5 46.3995C115.8 48.1995 120.7 55.5995 120.7 55.5995C120.7 55.5995 120.7 51.8995 120.1 50.0995C120.1 50.0995 126.2 56.1995 127.4 60.4995L128.6 53.7995C128.6 53.7995 132.9 59.8995 134.1 65.9995C134.8 69.6995 135.1 77.0995 135.1 83.2995C135.1 87.1995 134.9 90.5995 134.7 92.2995C134.7 92.2995 136.4 85.3995 140.3 83.8995C141 83.5995 141.8 83.4995 142.7 83.6995C147.5 84.7995 145.4 94.4995 142.7 100.1C139.6 106.3 135.7 108.4 134.2 108.2" stroke="black" stroke-width="2" stroke-miterlimit="10" stroke-linecap="round" stroke-linejoin="round"/>
<path d="M57.1001 104.2C57.6001 106.6 58.2001 109.8 59.3001 113.2C61.0001 118.6 63.6001 124.7 68.1001 129.2C69.6001 130.7 71.3001 132.1 73.1001 133.5C79.3001 138.2 87.5001 142.2 95.8001 143.1C97.3001 143.3 98.7001 143.3 100.2 143.2C100.3 143.2 100.4 143.2 100.4 143.2C111.5 142.6 122.3 133.1 127.6 125.3C128.1 124.5 128.6 123.7 129 123C131.4 118.8 132.9 112.8 133.8 107.7C134.8 102.3 135.1 97.9004 135.1 97.9004" stroke="black" stroke-width="2" stroke-miterlimit="10" stroke-linecap="round" stroke-linejoin="round"/>
<path d="M90.7999 82.7987C88.4999 78.3987 83.1 76.0987 76.9 76.5987C69.9 77.1987 66 80.8987 64.9 85.5987C64.4 87.6987 64.4 89.9987 65 92.1987C66.6 98.7987 72.8999 102.899 80.2999 101.799C88.7999 100.599 92.5 93.2987 91.9 86.4987C91.8 85.1987 91.3999 83.8987 90.7999 82.7987Z" stroke="black" stroke-width="2" stroke-miterlimit="10" stroke-linecap="round" stroke-linejoin="round"/>
<path d="M103.1 82.7005C105 77.6005 110.8 74.8005 117.5 75.4005C118 75.4005 118.6 75.5005 119.1 75.6005C124.4 76.4005 127.7 79.3005 129.1 82.9005C130 85.3005 130.1 88.2005 129.4 91.0005C128.3 95.4005 125.2 98.7005 121 100C118.9 100.7 116.6 100.9 114.1 100.6C105.6 99.4005 101.9 92.1005 102.5 85.3005C102.6 84.4005 102.8 83.5005 103.1 82.7005Z" stroke="black" stroke-width="2" stroke-miterlimit="10" stroke-linecap="round" stroke-linejoin="round"/>
<path d="M91.3999 82.6005C95.2999 80.2005 100.5 80.8005 102.9 82.6005" stroke="black" stroke-width="2.0355" stroke-miterlimit="10" stroke-linecap="round" stroke-linejoin="round"/>
<path d="M64.6999 85.5L56.3999 87.3L51.8999 88.3" stroke="black" stroke-width="1.9715" stroke-miterlimit="10" stroke-linecap="round" stroke-linejoin="round"/>
<path d="M129.5 82.5996L135 83.0996L139.4 83.3996L140.1 83.4996" stroke="black" stroke-width="2" stroke-miterlimit="10" stroke-linecap="round" stroke-linejoin="round"/>
<path d="M50.9998 90.7988C49.8998 91.4988 49.3998 92.6988 49.5998 94.2988C49.5998 94.6988 49.6998 95.1988 49.7998 95.6988" stroke="black" stroke-width="2" stroke-miterlimit="10" stroke-linecap="round" stroke-linejoin="round"/>
<path d="M141.4 86.4004C142.3 87.4004 142.9 89.3004 142.7 90.8004" stroke="black" stroke-width="2" stroke-miterlimit="10" stroke-linecap="round" stroke-linejoin="round"/>
<path d="M96.2001 83.5C96.2001 89 93.1001 96.9 93.1001 100C93.1001 103.1 95.5001 105.5 100.4 106.1" stroke="black" stroke-width="2" stroke-miterlimit="10" stroke-linecap="round" stroke-linejoin="round"/>
<path d="M87.3999 117.7C88.3999 118.7 90.3999 119.2 92.5999 119.2C98.4999 119.2 104.3 118.2 107.3 117C110.2 115.8 111.4 114.6 111.4 114.6" stroke="black" stroke-width="2.0355" stroke-miterlimit="10" stroke-linecap="round" stroke-linejoin="round"/>
<path d="M72.8998 133.799C73.5998 138.399 73.6998 144.899 72.8998 148.299C71.6998 149.899 70.9998 151.199 71.2998 152.799C71.3998 153.399 71.7998 154.099 72.2998 154.899C74.0998 157.299 82.7998 166.399 102.2 164.699C117.8 163.299 126.6 155.799 130.7 149.699C131.1 148.999 131.5 148.399 131.8 147.799C132.6 146.299 133.1 144.999 133.3 143.999C133.3 143.999 130.3 142.899 129.4 139.199C128.4 134.799 127.6 133.699 127.8 125.699" stroke="black" stroke-width="2.0355" stroke-miterlimit="10" stroke-linecap="round" stroke-linejoin="round"/>
<path d="M133.4 143.9C134.7 144.5 136 145 137.4 145.7C154.1 153.1 178.8 164.4 188.4 175.1C195.5 183.1 199.8 193.7 203.3 204" stroke="black" stroke-width="2" stroke-miterlimit="10" stroke-linecap="round" stroke-linejoin="round"/>
<path d="M67.1998 150.5C55.4998 154.1 32.0998 159.6 21.0998 169.6C12.4998 177.4 4.5998 191.9 -0.200195 201.9" stroke="black" stroke-width="2.0355" stroke-miterlimit="10" stroke-linecap="round" stroke-linejoin="round"/>
<path d="M72.8997 148.4C71.6997 149 69.6997 149.7 67.1997 150.5" stroke="black" stroke-width="2" stroke-miterlimit="10" stroke-linecap="round" stroke-linejoin="round"/>
<path d="M95 169.599C114 170.299 131.7 162.399 136.4 149.699C136.9 148.399 137.2 147.099 137.4 145.699" stroke="black" stroke-width="2.0355" stroke-miterlimit="10" stroke-linecap="round" stroke-linejoin="round"/>
<path d="M93.6997 169.5C93.9997 169.5 94.2997 169.5 94.5997 169.5" stroke="black" stroke-width="2.0355" stroke-miterlimit="10" stroke-linecap="round" stroke-linejoin="round"/>
<path d="M82.6997 167.5C83.4997 167.7 84.2997 168 85.0997 168.2" stroke="black" stroke-width="2.0355" stroke-miterlimit="10" stroke-linecap="round" stroke-linejoin="round"/>
<path d="M67.2 150.5C66.5 151.5 66.4 152.8 66.7 154.2C67.7 158.6 73.1999 164.5 82.5999 167.5" stroke="black" stroke-width="2.0355" stroke-miterlimit="10" stroke-linecap="round" stroke-linejoin="round"/>
<circle cx="67.1997" cy="150.5" r="1" fill="black"/>
<path d="M94.6997 169.6C94.7997 169.6 94.8997 169.6 94.9997 169.6" stroke="black" stroke-width="2.0355" stroke-miterlimit="10" stroke-linecap="round" stroke-linejoin="round"/>
</g>
<defs>
<linearGradient id="paint0_linear_1075_1082" x1="53.3755" y1="46.2337" x2="148.071" y2="46.2337" gradientUnits="userSpaceOnUse">
<stop stop-color="#5C5656"/>
<stop offset="1" stop-color="#42413D"/>
</linearGradient>
</defs>
</svg>
