<svg width="196" height="196" viewBox="0 0 196 196" fill="none" xmlns="http://www.w3.org/2000/svg">
<mask id="mask0_1075_1076" style="mask-type:alpha" maskUnits="userSpaceOnUse" x="0" y="0" width="196" height="196">
<rect width="196" height="196" fill="#D9D9D9"/>
</mask>
<g mask="url(#mask0_1075_1076)">
<rect width="196" height="196" fill="#F3F3F3"/>
<path d="M205.4 211.099H-4.69971C-3.89971 209.199 -2.49971 205.899 -0.49971 201.899L-0.199707 202.099C7.40029 189.699 18.1003 173.799 31.3003 166.799C39.6003 162.399 54.7003 157.599 66.4003 154.199C67.4003 158.599 72.9003 164.499 82.3003 167.499C82.3003 167.499 82.3003 167.499 82.4003 167.499C86.2003 168.999 90.7003 169.499 94.4003 169.599C94.5003 169.599 94.6003 169.599 94.7003 169.599C113.7 170.299 131.8 161.2 136.5 148.5C147.5 153.3 172.5 164.3 184 173.5C195.9 183 200.9 198.199 203 203.999C203 204.099 203.1 204.199 203.1 204.299C203.3 204.999 203.6 205.799 203.8 206.499V206.599C204.4 208.099 204.9 209.599 205.4 211.099Z" fill="#14181E"/>
<path d="M188.1 175C195.2 183 199.5 193.6 203 203.9C200.9 198.1 194.8 183.8 182.8 174.3C171.3 165.1 147 154.3 136.1 149.6C136.6 148.3 136.9 147 137.1 145.6C153.8 153.1 178.5 164.3 188.1 175Z" fill="#14181E"/>
<path d="M147.8 57.2H144.7C144.7 57.2 141.6 73.7 139.8 83.4L139.1 83.3C140.9 77 142.5 55 142.5 55L144.7 54.2C144.7 54.2 143.9 50.8 141.5 45.1C138.1 37.1 130.4 31.3 130.4 31.3L134.2 29.4C125.6 20.8 108.5 17 108.5 17L110.4 15.1C99.9002 11.3 82.8002 15.1 82.8002 15.1L83.8002 13.2C75.2002 16.1 69.5002 25.6 69.5002 25.6C69.5002 25.6 60.0002 25.6 53.2002 28.5C58.1002 23.6 67.9002 23 67.9002 23C71.6002 18.1 78.9002 10.8 88.7002 9C88.7002 9 87.5002 10.2 86.9002 12.1C86.9002 12.1 96.5002 9.7 108.3 12.1C114.4 13.3 116.8 13.8 116.8 13.8L113.9 15.7C113.9 15.7 131.6 20.6 139.5 31.6C139.5 31.6 136.4 31.6 134.6 31.6C134.6 31.6 140.2 34.7 143.8 44.4C146 51.1 147.8 57.2 147.8 57.2Z" fill="white"/>
<path d="M56.2004 87.2992C56.4004 92.2992 56.9004 95.7992 56.9004 98.0992C56.9004 98.0992 55.2004 89.2992 51.2004 88.1992V88.0992C50.8004 87.1992 49.2004 83.6992 47.7004 78.5992C46.8004 75.5992 45.9004 70.6992 45.3004 68.7992C44.7004 66.9992 42.9004 65.6992 42.9004 65.6992C44.1004 63.2992 44.7004 52.2992 44.7004 52.2992L42.9004 51.6992C42.9004 51.6992 46.0004 43.1992 51.4004 36.3992C54.7004 32.2992 56.6004 29.8992 56.6004 29.8992L53.2004 28.4992C60.0004 25.5992 69.5004 25.5992 69.5004 25.5992C69.5004 25.5992 75.2004 16.0992 83.8004 13.1992L82.8004 15.0992C82.8004 15.0992 100 11.2992 110.4 15.0992L108.5 16.9992C108.5 16.9992 125.7 20.7992 134.2 29.3992L130.4 31.2992C130.4 31.2992 138 36.9992 141.5 45.0992C143.9 50.7992 144.7 54.1992 144.7 54.1992L142.5 54.9992C142.5 54.9992 141 76.9992 139.1 83.2992L134.7 82.8992C134.7 76.6992 134.4 69.2992 133.7 65.5992C132.5 59.4992 128.2 53.3992 128.2 53.3992L127 60.0992C125.8 55.7992 119.7 49.6992 119.7 49.6992C120.3 51.4992 120.3 55.1992 120.3 55.1992C120.3 55.1992 115.4 47.8992 108.1 45.9992C101.9 44.4992 94.7004 46.5992 94.7004 46.5992C90.4004 45.9992 82.7004 45.7992 77.0004 48.9992C72.7004 51.3992 70.4004 53.2992 68.4004 55.6992C66.0004 58.7992 62.3004 64.8992 61.7004 67.8992C61.7004 67.8992 61.1004 62.3992 62.9004 58.6992C62.9004 58.6992 56.8004 65.3992 56.2004 76.3992C56.0004 80.7992 56.0004 84.2992 56.2004 87.2992Z" fill="#14181E"/>
<path d="M133.7 107.901C132.8 113.001 131.3 119.001 128.9 123.201C128.5 123.901 128 124.701 127.5 125.501C122.2 133.301 111.4 142.801 100.3 143.401C100.2 143.401 100.1 143.401 100.1 143.401V143.001C116 139.701 120.2 122.301 120.9 100.101C125 98.7008 128.2 95.5008 129.3 91.1008C130 88.2008 129.9 85.4008 129 83.0008L129.5 82.8008L135 83.2008C135 87.1008 134.8 90.5008 134.6 92.2008C134.6 92.2008 136.3 85.3008 140.2 83.8008C140.9 83.5008 141.7 83.4008 142.6 83.6008C147.4 84.7008 145.3 94.4008 142.6 100.001C139.3 106.101 135.3 108.101 133.7 107.901Z" fill="white"/>
<path d="M139.1 83.3996L139.8 83.4996L139.9 83.6996C136.1 85.1996 134.3 92.0996 134.3 92.0996C134.5 90.3996 134.7 86.9996 134.7 83.0996L139.1 83.3996Z" fill="#14181E"/>
<path d="M137.1 145.7C136.9 147.1 136.6 148.4 136.1 149.7C134.1 148.9 132.6 148.2 131.6 147.8C132.4 146.3 132.9 145 133.1 144C134.4 144.5 135.7 145 137.1 145.7Z" fill="#14181E"/>
<path d="M133.8 65.8005C134.5 69.5005 134.8 76.9005 134.8 83.1005L129.3 82.7005L128.8 82.9005C127.4 79.3005 123.3 76.3006 118 75.5006C117.6 74.1006 117.9 72.8005 117.4 71.4005C118.8 71.4005 120.3 71.4005 121.7 71.6005C123.5 71.8005 125.3 72.3005 126.7 73.0005H126.8C127.5 73.4005 128.4 73.1005 128.7 72.4005C129 71.7005 128.8 70.8005 128.1 70.5005C126.1 69.5005 124.1 69.0005 122.1 68.8005C120.2 68.6005 116.4 68.6005 114.5 68.8005C109.3 57.3005 101.1 49.3 93.5 47C93.5 47 102.1 44.7005 108.3 46.3005C115.6 48.1005 120.5 55.5005 120.5 55.5005C120.5 55.5005 120.5 51.8005 119.9 50.0005C119.9 50.0005 126 56.1005 127.2 60.4005L128.4 53.7005C128.3 53.6005 132.5 59.7005 133.8 65.8005Z" fill="white"/>
<path d="M94.4004 169.6C90.7004 169.5 86.2004 169.1 82.4004 167.5C82.4004 167.5 82.4004 167.5 82.3004 167.5C72.9004 164.4 67 157.9 66 153.5C67.6 153 69.5 152.4 71 152L71.5 153.5C71.6 154.1 71.6004 154.2 72.1004 155C73.9004 157.4 82.6004 166.5 102 164.8C117.6 163.4 126.4 155.9 130.5 149.8C130.9 149.1 132.2 147.6 132.5 147C133.5 147.4 134.5 148.2 136.5 149C131.8 161.7 113.7 170.4 94.7004 169.7C94.6004 169.6 94.5004 169.6 94.4004 169.6Z" fill="#14181E"/>
<path d="M129.3 139.1C130.1 142.8 133.2 143.9 133.2 143.9C133 144.9 132.5 146.3 131.7 147.7C131.4 148.3 131 148.9 130.6 149.6H130.5C121.1 151.5 106.1 149.6 95.6001 143.2C97.1001 143.4 98.5001 143.4 100 143.3C100.1 143.3 100.2 143.3 100.2 143.3C111.3 142.7 122.1 133.2 127.4 125.4L127.6 125.6C127.5 133.6 128.3 134.7 129.3 139.1Z" fill="#14181E"/>
<path d="M130.4 149.6C126.4 155.7 117.6 163.3 102 164.7C82.5004 166.4 73.9004 157.4 72.1004 154.9C71.5004 154.2 71.2004 153.5 71.1004 152.8C70.8004 151.3 71.4004 149.9 72.7004 148.3C73.5004 144.9 73.4004 138.3 72.7004 133.8L72.9004 133.5C79.1004 138.2 87.3004 142.2 95.6004 143.1C106 149.7 121 151.5 130.4 149.6Z" fill="white"/>
<path d="M128.8 82.8004C129.7 85.2004 129.8 88.1004 129.1 90.9004C128 95.3004 124.9 98.6004 120.7 99.9004C120.8 96.8004 120.9 93.7004 120.9 90.4004C120.9 85.1004 120.1 80.0004 118.8 75.4004C124.1 76.4004 127.3 79.2004 128.8 82.8004Z" fill="white"/>
<path d="M128 70.3993C128.7 70.7993 129 71.5993 128.6 72.2993C128.2 72.9993 127.4 73.2993 126.7 72.8993H126.6C125.2 72.1993 123.4 71.7993 121.6 71.4993C120.2 71.2993 118.8 71.1993 117.3 71.2993C117 70.3993 116.6 69.4993 116.2 68.5993C118.1 68.3993 120 68.4993 121.9 68.6993C124 68.9993 126 69.3993 128 70.3993Z" fill="black"/>
<path d="M120.9 90.5005C120.9 93.7005 120.9 96.9005 120.7 100C118.6 100.7 116.3 100.9 113.8 100.6C105.3 99.4005 101.6 92.1005 102.2 85.3005C102.3 84.4005 102.5 83.5005 102.8 82.7005C104.7 77.6005 110.5 74.8005 117.2 75.4005C117.7 75.4005 118.3 75.5005 118.8 75.6005C120.1 80.1005 120.9 85.2005 120.9 90.5005ZM118.5 85.0005C118.5 83.2005 117 81.6005 115.1 81.6005C113.2 81.6005 111.7 83.1005 111.7 85.0005C111.7 86.9005 113.2 88.4005 115.1 88.4005C117 88.4005 118.5 86.9005 118.5 85.0005Z" fill="white"/>
<path d="M118.8 75.5009C118.3 75.4009 117.8 75.4009 117.2 75.3009C110.5 74.8009 104.7 77.6009 102.8 82.6009L102.6 82.5009C100.1 80.7009 95.0001 80.1009 91.1001 82.5009L90.6001 82.7009C88.3001 78.3009 82.9001 76.0009 76.7001 76.5009C69.7001 77.1009 65.8001 80.8009 64.7001 85.5009H64.5001L56.2001 87.3009C56.1001 84.3009 56.0001 80.8009 56.3001 76.8009C56.9001 65.8009 63.0001 59.1009 63.0001 59.1009C61.2001 62.8009 61.8001 68.3009 61.8001 68.3009C62.4001 65.2009 66.1001 59.1009 68.5001 56.1009C70.4001 53.7009 72.8001 51.8009 77.1001 49.4009C82.8001 46.1009 90.5001 46.3009 94.8001 47.0009C102.5 49.3009 111.1 57.3009 116.3 68.8009C116.2 68.8009 116.1 68.8009 116.1 68.8009C114.1 69.0009 112.2 69.4009 110.2 69.9009C108.3 70.5009 106.4 71.3009 104.8 72.4009C104.5 72.6009 104.4 73.0009 104.5 73.4009C104.7 73.9009 105.2 74.1009 105.6 73.9009C107.3 73.3009 109 72.7009 110.8 72.2009C112.6 71.8009 114.4 71.5009 116.2 71.4009C116.6 71.4009 117 71.4009 117.4 71.4009C117.9 72.7009 118.4 74.1009 118.8 75.5009ZM89.8001 74.1009C90.0001 73.7009 89.9001 73.2009 89.5001 73.0009C87.6001 72.0009 85.6001 71.3009 83.5001 70.9009C81.4001 70.5009 79.3001 70.3009 77.2001 70.3009C75.1001 70.3009 73.0001 70.4009 70.8001 70.8009C69.7001 71.0009 68.7001 71.2009 67.6001 71.6009C66.6001 72.0009 65.5001 72.5009 64.5001 73.2009C63.9001 73.6009 63.7001 74.5009 64.1001 75.1009C64.5001 75.8009 65.4001 76.0009 66.1001 75.5009H66.2001C67.6001 74.6009 69.5001 74.1009 71.3001 73.7009C73.2001 73.3009 75.2001 73.2009 77.1001 73.2009C79.1001 73.2009 81.0001 73.3009 83.0001 73.5009C85.0001 73.7009 86.9001 74.1009 88.8001 74.5009C89.3001 74.6009 89.6001 74.4009 89.8001 74.1009Z" fill="white"/>
<path d="M115.1 81.5996C116.9 81.5996 118.5 83.0996 118.5 84.9996C118.5 86.8996 117 88.3996 115.1 88.3996C113.2 88.3996 111.7 86.8996 111.7 84.9996C111.8 83.0996 113.3 81.5996 115.1 81.5996Z" fill="black"/>
<path d="M59.0003 113.301L58.6003 113.401C57.4003 113.401 54.3003 111.001 51.3003 106.701C46.5003 99.9009 44.6003 90.2009 48.9003 88.4009C49.7003 88.0009 50.5003 88.0009 51.2003 88.2009C55.1003 89.4009 56.9003 98.1009 56.9003 98.1009C56.9003 95.8009 56.4003 92.3009 56.2003 87.3009L64.5003 85.5009H64.7003C64.2003 87.6009 64.2003 89.9009 64.8003 92.1009C66.4003 98.7009 72.7003 102.801 80.1003 101.701C88.6003 100.501 92.3003 93.2009 91.7003 86.4009C91.6003 85.0009 91.2003 83.8009 90.6003 82.7009L91.1003 82.5009C95.0003 80.1009 100.2 80.7009 102.6 82.5009L102.8 82.6009C102.5 83.4009 102.3 84.3009 102.2 85.2009C101.6 91.9009 105.3 99.2009 113.8 100.501C116.3 100.901 122.9 98.8009 125 98.1009C124.2 120.401 120 139 99.9003 142.801V143.201C98.4003 143.301 97.0003 143.201 95.5003 143.101C87.2003 142.301 79.1003 138.201 72.8003 133.501C70.9003 132.101 69.2003 130.601 67.8003 129.201C63.4003 124.801 60.7003 118.701 59.0003 113.301Z" fill="white"/>
<path d="M117.4 71.2992C117 71.2992 116.6 71.2992 116.2 71.2992C114.4 71.3992 112.6 71.6992 110.8 72.0992C109 72.4992 107.3 73.0992 105.6 73.7992C105.2 73.9992 104.6 73.6992 104.5 73.2992C104.4 72.8992 104.5 72.4992 104.8 72.2992C106.4 71.0992 108.3 70.2992 110.2 69.7992C112.1 69.1992 114.1 68.8992 116.1 68.6992C116.2 68.6992 116.3 68.6992 116.3 68.6992C116.6 69.4992 117 70.3992 117.4 71.2992Z" fill="black"/>
<path d="M91.7003 86.5005C92.3003 93.2005 88.6003 100.5 80.1003 101.8C72.8003 102.9 66.5003 98.8005 64.8003 92.2005C64.2003 89.9005 64.2003 87.6005 64.7003 85.6005C65.8003 80.9005 69.7003 77.2005 76.7003 76.6005C82.9003 76.1005 88.3003 78.5005 90.6003 82.8005C91.2003 83.9005 91.5003 85.2005 91.7003 86.5005ZM82.5003 86.8005C82.5003 85.0005 81.0003 83.4005 79.1003 83.4005C77.2003 83.4005 75.7003 84.9005 75.7003 86.8005C75.7003 88.7005 77.2003 90.2005 79.1003 90.2005C81.0003 90.2005 82.5003 88.7005 82.5003 86.8005Z" fill="white"/>
<path d="M89.5003 72.8993C89.9003 73.0993 90.1003 73.5993 89.8003 73.9993C89.6003 74.2993 89.2003 74.4993 88.9003 74.3993C87.0003 73.9993 85.0003 73.5993 83.1003 73.3993C81.2003 73.1993 79.2003 72.9993 77.2003 73.0993C75.2003 73.0993 73.3003 73.2993 71.4003 73.5993C69.5003 73.9993 67.7003 74.4993 66.3003 75.3993H66.2003C65.5003 75.7993 64.6003 75.5993 64.2003 74.9993C63.8003 74.3993 64.0003 73.4993 64.6003 73.0993C65.6003 72.3993 66.6003 71.8993 67.7003 71.4993C68.7003 71.0993 69.8003 70.8993 70.9003 70.6993C73.0003 70.2993 75.1003 70.0993 77.3003 70.1993C79.4003 70.1993 81.5003 70.3993 83.6003 70.7993C85.6003 71.2993 87.6003 71.8993 89.5003 72.8993Z" fill="black"/>
<path d="M79.1002 83.5C80.9002 83.5 82.5002 85 82.5002 86.9C82.5002 88.8 81.0002 90.3 79.1002 90.3C77.2002 90.3 75.7002 88.8 75.7002 86.9C75.8002 85 77.3002 83.5 79.1002 83.5Z" fill="black"/>
<path d="M71.1002 152.801C69.6002 153.201 68.0002 153.701 66.4002 154.101C66.1002 152.701 66.2002 151.401 66.9002 150.401C69.5002 149.601 71.4002 148.901 72.6002 148.301C71.4002 149.901 70.7002 151.301 71.1002 152.801Z" fill="#14181E"/>
<path d="M66.9005 150.5C66.2005 151.5 66.1005 152.8 66.4005 154.2C54.7005 157.6 39.6005 162.4 31.3005 166.8C18.1005 173.8 7.50049 189.7 -0.199509 202.1L-0.499512 201.9C4.30049 191.8 12.2005 177.4 20.8005 169.6C31.9005 159.5 55.2005 154 66.9005 150.5Z" fill="#14181E"/>
<path d="M139.9 83.4996C141.7 73.6996 144.8 57.2996 144.8 57.2996H147.9C147.9 57.2996 146.1 51.1996 143.6 44.4996C140.1 34.6996 134.4 31.6996 134.4 31.6996C136.2 31.6996 139.3 31.6996 139.3 31.6996C131.4 20.6996 113.7 15.7996 113.7 15.7996L116.6 13.8996C116.6 13.8996 114.2 13.3996 108.1 12.1996C96.3002 9.79961 86.7002 12.1996 86.7002 12.1996C87.3002 10.3996 88.5002 9.09961 88.5002 9.09961C78.7002 10.8996 71.4002 18.2996 67.7002 23.0996C67.7002 23.0996 57.9002 23.6996 53.0002 28.5996L56.4002 29.9996C56.4002 29.9996 54.5002 32.3996 51.2002 36.4996C45.7002 43.1996 42.7002 51.7996 42.7002 51.7996L44.5002 52.3996C44.5002 52.3996 43.9002 63.3996 42.7002 65.7996C42.7002 65.7996 44.5002 66.9996 45.1002 68.8996C45.7002 70.6996 46.6002 75.6996 47.5002 78.6996C49.0002 83.7996 50.6002 87.2996 51.0002 88.1996" stroke="black" stroke-width="2" stroke-miterlimit="10" stroke-linecap="round" stroke-linejoin="round"/>
<path d="M58.6999 113.4C57.4999 113.4 54.3999 111 51.3999 106.7C46.5999 99.8995 44.6999 90.1995 48.9999 88.3995C49.7999 87.9995 50.5999 87.9995 51.2999 88.1995C55.1999 89.3995 56.9999 98.0995 56.9999 98.0995C56.9999 95.7995 56.4999 92.2995 56.2999 87.2995C56.1999 84.2995 56.0999 80.7995 56.3999 76.7995C56.9999 65.7995 63.0999 59.0995 63.0999 59.0995C61.2999 62.7995 61.8999 68.2995 61.8999 68.2995C62.4999 65.1995 66.1999 59.0995 68.5999 56.0995C70.4999 53.6995 72.8999 51.7995 77.1999 49.3995C82.8999 46.0995 90.5999 46.2995 94.8999 46.9995C94.8999 46.9995 102.1 44.7995 108.3 46.3995C115.6 48.1995 120.5 55.5995 120.5 55.5995C120.5 55.5995 120.5 51.8995 119.9 50.0995C119.9 50.0995 126 56.1995 127.2 60.4995L128.4 53.7995C128.4 53.7995 132.7 59.8995 133.9 65.9995C134.6 69.6995 134.9 77.0995 134.9 83.2995C134.9 87.1995 134.7 90.5995 134.5 92.2995C134.5 92.2995 136.2 85.3995 140.1 83.8995C140.8 83.5995 141.6 83.4995 142.5 83.6995C147.3 84.7995 145.2 94.4995 142.5 100.1C139.4 106.3 135.5 108.4 134 108.2" stroke="black" stroke-width="2" stroke-miterlimit="10" stroke-linecap="round" stroke-linejoin="round"/>
<path d="M56.8999 104.2C57.3999 106.6 57.9999 109.8 59.0999 113.2C60.7999 118.6 63.3999 124.7 67.8999 129.2C69.3999 130.7 71.0999 132.1 72.8999 133.5C79.0999 138.2 87.2999 142.2 95.5999 143.1C97.0999 143.3 98.4999 143.3 99.9999 143.2C100.1 143.2 100.2 143.2 100.2 143.2C111.3 142.6 122.1 133.1 127.4 125.3C127.9 124.5 128.4 123.7 128.8 123C131.2 118.8 132.7 112.8 133.6 107.7C134.6 102.3 134.9 97.9004 134.9 97.9004" stroke="black" stroke-width="2" stroke-miterlimit="10" stroke-linecap="round" stroke-linejoin="round"/>
<path d="M90.6003 82.7987C88.3003 78.3987 82.9003 76.0987 76.7003 76.5987C69.7003 77.1987 65.8003 80.8987 64.7003 85.5987C64.2003 87.6987 64.2003 89.9987 64.8003 92.1987C66.4003 98.7987 72.7003 102.899 80.1003 101.799C88.6003 100.599 92.3003 93.2987 91.7003 86.4987C91.5003 85.1987 91.2003 83.8987 90.6003 82.7987Z" stroke="black" stroke-width="2" stroke-miterlimit="10" stroke-linecap="round" stroke-linejoin="round"/>
<path d="M102.8 82.7005C104.7 77.6005 110.5 74.8005 117.2 75.4005C117.7 75.4005 118.3 75.5005 118.8 75.6005C124.1 76.4005 127.4 79.3005 128.8 82.9005C129.7 85.3005 129.8 88.2005 129.1 91.0005C128 95.4005 124.9 98.7005 120.7 100C118.6 100.7 116.3 100.9 113.8 100.6C105.3 99.4005 101.6 92.1005 102.2 85.3005C102.3 84.4005 102.5 83.5005 102.8 82.7005Z" stroke="black" stroke-width="2" stroke-miterlimit="10" stroke-linecap="round" stroke-linejoin="round"/>
<path d="M91.1001 82.6005C95.0001 80.2005 100.2 80.8005 102.6 82.6005" stroke="black" stroke-width="2.0355" stroke-miterlimit="10" stroke-linecap="round" stroke-linejoin="round"/>
<path d="M64.5001 85.5L56.2001 87.3L51.6001 88.3" stroke="black" stroke-width="1.9715" stroke-miterlimit="10" stroke-linecap="round" stroke-linejoin="round"/>
<path d="M129.3 82.5996L134.8 83.0996L139.1 83.3996L139.9 83.4996" stroke="black" stroke-width="2" stroke-miterlimit="10" stroke-linecap="round" stroke-linejoin="round"/>
<path d="M50.7 90.7988C49.3 91.6988 48.9 93.4988 49.5 95.6988" stroke="black" stroke-width="2" stroke-miterlimit="10" stroke-linecap="round" stroke-linejoin="round"/>
<path d="M141.2 86.5C142.1 87.5 142.6 89.4 142.5 90.8" stroke="black" stroke-width="2" stroke-miterlimit="10" stroke-linecap="round" stroke-linejoin="round"/>
<path d="M95.9003 83.5C95.9003 89 92.8003 96.9 92.8003 100C92.8003 103.1 95.2003 105.5 100.1 106.1" stroke="black" stroke-width="2" stroke-miterlimit="10" stroke-linecap="round" stroke-linejoin="round"/>
<path d="M87.1001 117.7C88.1001 118.7 90.1001 119.2 92.3001 119.2C98.2001 119.2 104 118.2 107 117C109.9 115.8 111.1 114.6 111.1 114.6" stroke="black" stroke-width="2.0355" stroke-miterlimit="10" stroke-linecap="round" stroke-linejoin="round"/>
<path d="M72.7001 133.799C73.4001 138.399 73.5001 144.899 72.7001 148.299C71.5001 149.899 70.8001 151.199 71.1001 152.799C71.2001 153.399 71.6001 154.099 72.1001 154.899C73.9001 157.299 82.6 166.399 102 164.699C117.6 163.299 126.4 155.799 130.5 149.699C130.9 148.999 131.3 148.399 131.6 147.799C132.4 146.299 132.9 144.999 133.1 143.999C133.1 143.999 130.1 142.899 129.2 139.199C128.2 134.799 127.4 133.699 127.6 125.699" stroke="black" stroke-width="2.0355" stroke-miterlimit="10" stroke-linecap="round" stroke-linejoin="round"/>
<path d="M133.2 143.9C134.5 144.5 135.8 145 137.2 145.7C153.9 153.1 178.6 164.4 188.2 175.1C195.3 183.1 199.6 193.7 203.1 204" stroke="black" stroke-width="2" stroke-miterlimit="10" stroke-linecap="round" stroke-linejoin="round"/>
<path d="M66.9 150.5C55.2 154.1 31.8 159.6 20.8 169.6C12.2 177.4 4.3 191.9 -0.5 201.9" stroke="black" stroke-width="2.0355" stroke-miterlimit="10" stroke-linecap="round" stroke-linejoin="round"/>
<path d="M72.7 148.4C71.5 149 69.5 149.7 67 150.5" stroke="black" stroke-width="2" stroke-miterlimit="10" stroke-linecap="round" stroke-linejoin="round"/>
<path d="M94.7002 169.599C113.7 170.299 131.4 162.399 136.1 149.699C136.6 148.399 136.9 147.099 137.1 145.699" stroke="black" stroke-width="2.0355" stroke-miterlimit="10" stroke-linecap="round" stroke-linejoin="round"/>
<path d="M93.5 169.5C93.8 169.5 94.1 169.5 94.4 169.5" stroke="black" stroke-width="2.0355" stroke-miterlimit="10" stroke-linecap="round" stroke-linejoin="round"/>
<path d="M82.3999 167.5C83.1999 167.7 83.9999 168 84.7999 168.2" stroke="black" stroke-width="2.0355" stroke-miterlimit="10" stroke-linecap="round" stroke-linejoin="round"/>
<path d="M66.9002 150.5C66.2002 151.5 66.1002 152.8 66.4002 154.2C67.4002 158.6 72.9002 164.5 82.3002 167.5" stroke="black" stroke-width="2.0355" stroke-miterlimit="10" stroke-linecap="round" stroke-linejoin="round"/>
<circle cx="66.8999" cy="150.5" r="1" fill="black"/>
<path d="M94.3999 169.6C94.4999 169.6 94.5999 169.6 94.6999 169.6" stroke="black" stroke-width="2.0355" stroke-miterlimit="10" stroke-linecap="round" stroke-linejoin="round"/>
</g>
</svg>
